<?xml version="1.0" standalone="no"?>
<!DOCTYPE svg PUBLIC "-//W3C//DTD SVG 20010904//EN"
 "http://www.w3.org/TR/2001/REC-SVG-20010904/DTD/svg10.dtd">
<svg version="1.0" xmlns="http://www.w3.org/2000/svg"
 width="2560.000000pt" height="1805.000000pt" viewBox="0 0 2560.000000 1805.000000"
 preserveAspectRatio="xMidYMid meet">

<g transform="translate(0.000000,1805.000000) scale(0.100000,-0.100000)"
fill="#000000" stroke="none">
<path d="M8150 11584 c-752 -55 -1593 -311 -2200 -671 -321 -190 -532 -381
-621 -562 -29 -57 -34 -79 -37 -159 -9 -205 70 -340 278 -472 30 -19 69 -47
85 -62 17 -15 34 -28 38 -28 4 0 20 -9 35 -19 45 -33 261 -91 337 -91 59 0 75
-2 75 -11 0 -5 -12 -49 -26 -100 -24 -83 -26 -102 -21 -213 3 -66 12 -143 21
-169 46 -143 129 -253 253 -334 31 -21 64 -44 73 -51 63 -53 165 -111 255
-145 104 -40 343 -53 495 -28 104 17 130 28 171 73 57 61 62 126 14 212 -12
23 -26 52 -30 66 -4 14 -15 34 -24 45 -17 19 -28 51 -51 140 -14 56 -12 173 3
217 19 55 66 107 107 118 19 5 78 17 130 25 209 34 507 103 575 134 27 12 108
38 175 57 30 8 62 17 70 21 8 3 19 5 24 4 5 -1 13 4 17 11 17 27 18 -3 3 -104
-18 -122 -11 -185 31 -275 27 -60 121 -160 175 -188 19 -10 62 -39 95 -65 58
-46 140 -90 167 -90 8 0 18 -4 23 -8 15 -14 136 -32 206 -32 115 1 199 21 417
100 17 7 32 15 32 19 0 11 61 30 127 39 49 7 67 5 87 -7 14 -9 26 -19 26 -23
0 -5 6 -8 13 -8 10 -1 113 -63 142 -87 68 -56 450 -58 572 -2 23 10 47 19 53
19 5 0 18 4 28 9 104 56 177 82 231 83 28 1 98 -29 171 -73 25 -15 65 -33 90
-40 25 -7 49 -16 55 -21 5 -4 25 -9 45 -9 64 -3 -211 -27 -425 -39 -717 -37
-978 -66 -1290 -146 -331 -84 -563 -201 -718 -364 -234 -244 -337 -554 -337
-1013 0 -215 9 -317 45 -532 25 -149 36 -189 63 -219 22 -24 90 -55 122 -56
16 0 34 -12 51 -33 36 -45 96 -65 141 -47 40 16 168 99 168 109 0 4 29 27 65
50 36 24 69 49 73 55 11 17 115 92 169 122 26 15 71 45 100 66 29 21 55 38 59
38 4 0 22 11 39 25 18 13 68 42 111 63 44 22 117 60 164 84 105 54 202 98 217
98 6 0 24 7 39 15 16 8 37 15 46 15 9 0 19 4 22 9 3 5 18 12 33 15 16 4 71 22
123 41 137 48 257 85 277 85 10 0 47 6 83 14 54 12 324 65 420 82 80 14 335
44 455 53 471 37 508 39 1020 47 390 5 857 -4 1275 -26 102 -5 277 -14 390
-20 113 -5 255 -15 315 -20 115 -11 266 -24 470 -41 66 -5 179 -16 250 -25 72
-8 236 -26 365 -39 129 -13 271 -29 315 -35 196 -27 452 -65 605 -90 30 -5 85
-14 123 -20 37 -5 86 -14 110 -19 40 -9 127 -23 262 -41 33 -4 99 -15 148 -24
831 -152 1301 -173 1767 -80 134 26 382 105 480 153 79 39 190 101 225 127 17
12 48 31 71 42 22 11 54 33 71 49 30 29 68 60 143 118 110 86 302 350 367 504
15 36 30 68 34 71 4 3 20 61 35 130 26 114 29 141 28 305 -1 236 -26 358 -110
530 -31 63 -60 118 -65 121 -5 3 -9 14 -9 25 0 10 -6 19 -13 19 -7 0 -23 20
-37 45 -14 25 -28 45 -32 45 -3 0 -10 9 -13 20 -3 11 -12 26 -18 33 -7 7 -34
41 -61 77 -63 83 -185 210 -256 264 -78 61 -135 92 -283 155 l-129 56 -4 50
c-13 185 -29 242 -102 354 -31 49 -35 64 -36 121 -1 41 5 78 15 100 24 50 33
156 18 216 -12 48 -62 134 -78 134 -5 0 -22 29 -40 64 -61 125 -185 201 -411
251 -140 31 -756 30 -922 -1 -17 -3 -31 1 -40 11 -7 9 -27 31 -44 48 -17 18
-39 56 -49 86 -35 105 -125 161 -261 161 -82 0 -130 -18 -243 -95 -95 -63
-287 -218 -367 -297 l-41 -40 -149 -10 c-170 -11 -346 -5 -419 15 -32 9 -63
27 -86 50 -63 63 -156 69 -258 18 -130 -67 -179 -245 -105 -381 31 -57 107
-131 166 -161 22 -11 56 -35 76 -52 20 -18 58 -44 85 -57 100 -52 103 -34 -32
-217 -66 -89 -130 -168 -143 -177 -24 -17 -63 -22 -53 -6 3 5 1 17 -4 27 -5
10 -20 45 -32 78 -12 33 -39 80 -59 105 -20 25 -49 66 -63 92 -58 101 -182
193 -313 231 -120 35 -404 30 -610 -12 -207 -42 -357 -97 -592 -214 -134 -67
-165 -79 -172 -67 -19 32 -36 53 -51 69 -9 9 -22 34 -29 56 -50 163 -217 210
-401 113 -76 -40 -213 -160 -394 -346 -151 -155 -215 -212 -202 -180 10 27
-14 87 -53 131 -20 23 -42 62 -49 87 -28 95 -135 160 -267 160 -105 0 -191
-38 -339 -151 -83 -63 -80 -62 -81 -21 -1 21 -2 46 -3 57 0 12 -19 40 -42 63
-25 26 -46 61 -55 91 -20 70 -78 126 -150 147 -115 33 -245 -5 -428 -126 -136
-90 -256 -191 -456 -385 -163 -158 -274 -250 -322 -268 -18 -6 -21 -6 -10 4 6
7 12 21 12 31 0 10 4 18 8 18 4 0 8 8 8 18 1 9 13 57 28 106 14 48 26 105 26
126 0 49 -23 114 -55 153 -14 18 -29 37 -34 43 -5 6 -17 30 -28 55 -40 88
-161 170 -312 211 -97 26 -374 31 -523 9 -54 -8 -100 -12 -102 -10 -3 3 0 25
6 49 20 84 14 246 -12 333 -13 44 -29 81 -36 84 -7 2 -16 18 -19 34 -4 16 -13
29 -21 29 -8 0 -14 4 -14 9 0 15 -110 175 -148 214 -78 82 -213 158 -356 202
-176 54 -268 65 -566 69 -151 2 -300 2 -330 0z m551 -154 c267 -26 465 -99
579 -213 65 -65 99 -133 116 -229 33 -188 -33 -338 -235 -539 -160 -159 -329
-277 -586 -410 -421 -218 -890 -364 -1350 -420 -108 -13 -406 -16 -520 -6
l-70 6 70 -19 c39 -11 118 -25 178 -32 59 -7 112 -15 117 -18 6 -4 4 -49 -6
-120 -17 -124 -13 -227 11 -343 20 -94 52 -161 113 -232 52 -60 61 -79 42 -90
-29 -18 -180 -36 -305 -36 -109 0 -157 4 -218 20 -264 69 -397 226 -397 471 0
131 40 246 142 408 33 51 38 65 28 77 -19 22 11 60 69 89 27 14 67 47 90 73
153 176 524 454 745 557 148 69 231 79 263 30 15 -24 14 -26 -86 -129 -159
-165 -294 -341 -355 -464 l-27 -53 63 7 c270 31 628 214 903 461 316 284 501
550 512 739 6 89 -14 130 -77 163 -38 19 -60 22 -157 22 -577 0 -1448 -414
-1968 -934 -163 -163 -251 -294 -275 -408 -14 -71 -18 -73 -178 -65 -185 9
-299 53 -403 156 -56 56 -68 74 -79 120 -35 148 -1 240 149 395 320 330 1018
666 1741 839 272 66 596 118 805 130 134 7 466 6 556 -3z m8742 -121 c56 -30
50 -53 -52 -214 -50 -77 -89 -140 -88 -142 1 -1 99 11 217 28 118 16 285 35
370 44 201 19 573 20 700 0 186 -28 319 -89 355 -162 43 -89 -15 -217 -113
-248 -17 -5 -40 2 -83 25 -32 17 -80 37 -106 45 -222 66 -668 71 -1338 15
-126 -10 -297 -24 -380 -30 -82 -7 -151 -13 -153 -14 -1 -2 58 -6 132 -9 194
-10 188 -3 114 -117 -189 -294 -364 -588 -429 -724 -87 -179 -28 -261 172
-243 121 11 203 68 493 346 167 160 281 241 481 341 254 127 468 189 725 211
267 24 424 -16 522 -131 57 -66 70 -140 54 -321 -14 -164 13 -192 304 -309
198 -80 278 -129 386 -237 211 -213 341 -488 360 -765 25 -363 -160 -750 -487
-1023 -189 -158 -414 -281 -654 -358 -114 -37 -182 -53 -330 -79 -116 -20
-165 -22 -455 -23 -387 0 -527 14 -1090 111 -381 65 -554 94 -720 119 -91 14
-192 30 -225 35 -98 17 -329 47 -730 95 -107 13 -296 33 -625 65 -1020 100
-2618 126 -3430 55 -992 -86 -1631 -290 -2275 -726 -108 -73 -256 -187 -426
-327 l-28 -23 -5 23 c-83 386 -90 798 -16 1081 74 289 245 510 487 631 330
164 719 236 1498 276 110 6 263 15 340 21 451 32 1304 29 1835 -6 494 -33
1043 -92 1455 -156 72 -11 175 -27 230 -35 113 -17 152 -24 530 -94 698 -130
1334 -281 2280 -543 571 -158 869 -209 1215 -209 379 1 737 99 995 273 72 49
191 164 241 236 61 84 120 213 146 319 30 123 30 322 0 445 -77 317 -240 521
-497 625 -116 46 -211 70 -430 104 -247 40 -296 53 -380 102 -82 49 -183 146
-214 205 -41 81 -19 149 57 174 61 21 209 16 266 -10 27 -11 50 -21 52 -21 11
0 14 74 5 102 -33 100 -234 102 -436 5 -202 -98 -382 -275 -416 -410 -9 -38
-8 -51 5 -79 24 -51 69 -68 176 -68 87 0 155 17 286 71 27 11 42 9 120 -15 49
-15 114 -41 145 -58 61 -32 129 -89 129 -107 0 -35 -283 -215 -447 -284 -227
-96 -396 -131 -633 -131 -182 0 -244 11 -358 64 -113 53 -188 131 -213 223
l-10 40 -42 -40 c-146 -139 -344 -245 -519 -278 -180 -34 -388 -6 -563 76 -73
34 -168 132 -184 191 -22 79 3 187 77 334 l31 61 -62 -22 c-136 -50 -251 -68
-427 -68 -146 0 -176 3 -265 27 -127 33 -196 68 -262 133 -106 103 -99 193 21
249 69 32 218 34 285 4 24 -11 47 -18 50 -14 3 3 6 27 6 54 0 89 -66 127 -205
117 -168 -13 -359 -114 -515 -271 -83 -84 -145 -187 -145 -240 0 -43 26 -81
69 -100 32 -15 58 -18 143 -14 91 4 114 9 198 42 l94 39 76 -22 c104 -31 208
-83 253 -127 20 -20 37 -40 37 -44 0 -26 -233 -181 -375 -250 -442 -214 -954
-225 -1181 -27 -52 46 -100 139 -109 210 -24 192 135 446 405 648 286 213 658
352 1021 381 240 20 381 -10 481 -100 113 -102 125 -294 33 -514 -6 -16 1 -18
87 -18 161 0 316 53 405 139 21 20 67 77 102 126 100 140 367 464 416 505 9 7
20 21 25 30 9 16 -2 17 -131 13 -169 -5 -319 10 -391 37 -148 56 -215 165
-158 257 37 62 91 72 143 26 100 -87 308 -110 721 -76 80 6 80 6 141 62 119
109 141 128 246 212 156 123 221 159 287 159 29 0 63 -5 75 -11z m-9052 -388
c7 11 9 11 9 -2 0 -21 -49 -112 -100 -185 -85 -123 -317 -357 -420 -424 l-45
-30 -12 36 c-14 39 -67 106 -77 97 -3 -4 -6 7 -6 23 -1 93 -117 204 -214 204
-9 0 -16 5 -16 11 0 5 5 7 10 4 6 -3 10 -2 10 4 0 5 13 12 29 16 16 3 67 25
113 47 45 22 94 44 108 49 14 4 50 17 80 29 30 12 82 28 115 37 33 8 83 21
110 29 68 19 184 43 234 48 23 2 45 6 49 10 3 4 8 2 11 -5 2 -8 6 -7 12 2z
m9309 -513 c-256 -140 -381 -228 -564 -398 -60 -55 -111 -98 -115 -95 -3 4 5
15 18 26 13 10 20 19 15 19 -4 0 2 9 14 20 12 12 22 30 22 41 0 11 18 43 39
72 21 29 47 68 58 87 89 166 165 228 308 249 105 16 97 16 195 18 l85 2 -75
-41z m-7465 7 c175 -46 263 -148 190 -220 -33 -34 -73 -32 -119 4 -54 43 -100
56 -206 55 -79 0 -109 -5 -175 -28 -294 -105 -655 -388 -655 -513 0 -30 5 -36
37 -50 115 -48 347 49 645 269 169 124 251 168 327 175 105 10 124 -23 72
-125 -81 -161 -112 -275 -92 -342 10 -35 19 -45 58 -62 38 -17 61 -20 127 -16
167 9 300 96 611 398 193 188 284 265 420 356 131 87 188 114 259 121 45 5 56
2 81 -19 34 -30 31 -56 -18 -120 -188 -246 -229 -305 -264 -375 -92 -183 -54
-288 98 -270 114 14 223 87 451 305 233 221 324 282 426 282 114 0 144 -46 90
-138 -102 -173 -142 -327 -103 -402 30 -58 131 -65 229 -15 104 52 227 162
516 461 212 217 313 289 408 289 62 0 72 -10 72 -77 0 -193 -311 -673 -593
-914 -123 -105 -218 -169 -344 -233 -128 -64 -227 -96 -357 -116 -283 -42
-442 11 -527 177 -18 34 -23 65 -27 148 -2 60 0 122 7 145 l10 40 -19 -25
c-11 -14 -39 -63 -62 -109 -45 -89 -85 -131 -192 -203 -79 -55 -204 -112 -301
-139 -108 -30 -285 -32 -365 -5 -124 42 -183 102 -203 204 l-11 60 -46 -37
c-127 -107 -312 -207 -445 -241 -112 -30 -252 -36 -338 -16 -91 21 -137 46
-185 101 -49 56 -71 115 -79 215 -5 66 -2 84 20 140 l26 65 -30 -35 c-39 -45
-95 -144 -115 -204 -17 -50 -42 -71 -164 -138 -150 -83 -281 -124 -425 -134
-231 -16 -409 85 -440 248 -8 43 16 175 46 251 27 67 85 154 168 246 255 288
707 526 1096 580 97 14 337 5 410 -14z m5357 -1093 c40 -111 119 -202 248
-285 30 -19 71 -49 90 -66 19 -17 41 -31 48 -31 6 0 12 -4 12 -9 0 -11 156
-73 230 -92 84 -21 460 -19 520 3 106 38 189 74 245 106 63 36 142 56 181 46
13 -3 41 -15 61 -25 21 -10 43 -19 51 -19 7 0 11 -4 8 -9 -6 -10 141 -81 204
-98 25 -7 101 -17 169 -24 259 -23 566 30 796 136 120 56 201 95 220 107 66
43 215 151 240 175 46 44 77 60 142 77 56 15 66 15 149 -3 98 -21 171 -44 224
-69 19 -9 40 -17 45 -17 22 -1 87 -72 125 -138 148 -257 155 -573 17 -819 -95
-170 -288 -316 -540 -409 -323 -119 -750 -133 -1217 -39 -128 26 -432 101
-585 144 -61 17 -176 49 -315 87 -197 54 -805 208 -1000 253 -1162 268 -2083
411 -3185 491 -115 9 -211 17 -212 19 -2 2 25 6 60 10 34 3 85 14 112 25 102
38 160 61 177 71 10 6 23 10 29 10 6 0 23 8 37 19 15 10 63 37 107 60 44 23
123 75 175 116 52 41 100 75 106 75 7 0 14 7 18 15 12 32 47 13 133 -74 48
-49 106 -98 128 -109 22 -11 67 -42 101 -69 67 -55 135 -90 234 -121 50 -16
283 -34 355 -28 33 3 94 8 135 11 161 13 341 66 527 156 45 21 93 43 106 48
25 10 127 75 207 133 25 18 79 68 120 110 67 69 104 95 135 97 6 1 18 -21 27
-47z m-3672 -323 c0 -5 4 -8 9 -5 10 7 71 -25 71 -36 0 -5 7 -8 15 -8 8 0 15
-4 15 -10 0 -5 6 -10 13 -10 6 0 27 -14 45 -30 19 -16 47 -35 63 -42 16 -7 29
-16 29 -19 0 -9 -90 -16 -180 -15 -41 1 -185 2 -319 4 -134 1 -242 5 -238 8 3
4 39 17 79 31 40 13 123 48 183 78 61 29 117 56 125 58 28 10 90 7 90 -4z"/>
</g>
</svg>
